<svg width="283" height="219" viewBox="0 0 283 219" fill="none" xmlns="http://www.w3.org/2000/svg">
<circle cx="55" cy="55" r="46" stroke="white" stroke-width="18"/>
<path d="M3.96 155.47C3.96 151.41 4.77667 147.863 6.41 144.83C8.09 141.797 10.4 139.463 13.34 137.83C16.3267 136.197 19.7333 135.38 23.56 135.38C28.46 135.38 32.5433 136.663 35.81 139.23C39.1233 141.797 41.2933 145.413 42.32 150.08H29.58C28.5067 147.093 26.43 145.6 23.35 145.6C21.1567 145.6 19.4067 146.463 18.1 148.19C16.7933 149.87 16.14 152.297 16.14 155.47C16.14 158.643 16.7933 161.093 18.1 162.82C19.4067 164.5 21.1567 165.34 23.35 165.34C26.43 165.34 28.5067 163.847 29.58 160.86H42.32C41.2933 165.433 39.1233 169.027 35.81 171.64C32.4967 174.253 28.4133 175.56 23.56 175.56C19.7333 175.56 16.3267 174.743 13.34 173.11C10.4 171.477 8.09 169.143 6.41 166.11C4.77667 163.077 3.96 159.53 3.96 155.47ZM66.5028 175.56C62.6761 175.56 59.2228 174.743 56.1428 173.11C53.1095 171.477 50.7061 169.143 48.9328 166.11C47.2061 163.077 46.3428 159.53 46.3428 155.47C46.3428 151.457 47.2295 147.933 49.0028 144.9C50.7761 141.82 53.2028 139.463 56.2828 137.83C59.3628 136.197 62.8161 135.38 66.6428 135.38C70.4695 135.38 73.9228 136.197 77.0028 137.83C80.0828 139.463 82.5095 141.82 84.2828 144.9C86.0561 147.933 86.9428 151.457 86.9428 155.47C86.9428 159.483 86.0328 163.03 84.2128 166.11C82.4395 169.143 79.9895 171.477 76.8628 173.11C73.7828 174.743 70.3295 175.56 66.5028 175.56ZM66.5028 165.2C68.7895 165.2 70.7261 164.36 72.3128 162.68C73.9461 161 74.7628 158.597 74.7628 155.47C74.7628 152.343 73.9695 149.94 72.3828 148.26C70.8428 146.58 68.9295 145.74 66.6428 145.74C64.3095 145.74 62.3728 146.58 60.8328 148.26C59.2928 149.893 58.5228 152.297 58.5228 155.47C58.5228 158.597 59.2695 161 60.7628 162.68C62.3028 164.36 64.2161 165.2 66.5028 165.2ZM117.093 135.52C121.666 135.52 125.306 137.013 128.013 140C130.766 142.94 132.143 147 132.143 152.18V175H120.243V153.79C120.243 151.177 119.566 149.147 118.213 147.7C116.86 146.253 115.04 145.53 112.753 145.53C110.466 145.53 108.646 146.253 107.293 147.7C105.94 149.147 105.263 151.177 105.263 153.79V175H93.2931V135.94H105.263V141.12C106.476 139.393 108.11 138.04 110.163 137.06C112.216 136.033 114.526 135.52 117.093 135.52ZM162.231 164.85V175H156.141C151.801 175 148.418 173.95 145.991 171.85C143.564 169.703 142.351 166.227 142.351 161.42V145.88H137.591V135.94H142.351V126.42H154.321V135.94H162.161V145.88H154.321V161.56C154.321 162.727 154.601 163.567 155.161 164.08C155.721 164.593 156.654 164.85 157.961 164.85H162.231ZM166.519 155.4C166.519 151.387 167.265 147.863 168.759 144.83C170.299 141.797 172.375 139.463 174.989 137.83C177.602 136.197 180.519 135.38 183.739 135.38C186.492 135.38 188.895 135.94 190.949 137.06C193.049 138.18 194.659 139.65 195.779 141.47V135.94H207.749V175H195.779V169.47C194.612 171.29 192.979 172.76 190.879 173.88C188.825 175 186.422 175.56 183.669 175.56C180.495 175.56 177.602 174.743 174.989 173.11C172.375 171.43 170.299 169.073 168.759 166.04C167.265 162.96 166.519 159.413 166.519 155.4ZM195.779 155.47C195.779 152.483 194.939 150.127 193.259 148.4C191.625 146.673 189.619 145.81 187.239 145.81C184.859 145.81 182.829 146.673 181.149 148.4C179.515 150.08 178.699 152.413 178.699 155.4C178.699 158.387 179.515 160.767 181.149 162.54C182.829 164.267 184.859 165.13 187.239 165.13C189.619 165.13 191.625 164.267 193.259 162.54C194.939 160.813 195.779 158.457 195.779 155.47ZM214.028 155.47C214.028 151.41 214.845 147.863 216.478 144.83C218.158 141.797 220.468 139.463 223.408 137.83C226.395 136.197 229.802 135.38 233.628 135.38C238.528 135.38 242.612 136.663 245.878 139.23C249.192 141.797 251.362 145.413 252.388 150.08H239.648C238.575 147.093 236.498 145.6 233.418 145.6C231.225 145.6 229.475 146.463 228.168 148.19C226.862 149.87 226.208 152.297 226.208 155.47C226.208 158.643 226.862 161.093 228.168 162.82C229.475 164.5 231.225 165.34 233.418 165.34C236.498 165.34 238.575 163.847 239.648 160.86H252.388C251.362 165.433 249.192 169.027 245.878 171.64C242.565 174.253 238.482 175.56 233.628 175.56C229.802 175.56 226.395 174.743 223.408 173.11C220.468 171.477 218.158 169.143 216.478 166.11C214.845 163.077 214.028 159.53 214.028 155.47ZM280.561 164.85V175H274.471C270.131 175 266.748 173.95 264.321 171.85C261.895 169.703 260.681 166.227 260.681 161.42V145.88H255.921V135.94H260.681V126.42H272.651V135.94H280.491V145.88H272.651V161.56C272.651 162.727 272.931 163.567 273.491 164.08C274.051 164.593 274.985 164.85 276.291 164.85H280.561Z" fill="white"/>
</svg>
