<svg width="304" height="219" viewBox="0 0 304 219" fill="none" xmlns="http://www.w3.org/2000/svg">
<circle cx="55" cy="55" r="46" stroke="white" stroke-width="18"/>
<path d="M22.23 175.56C18.8233 175.56 15.79 174.977 13.13 173.81C10.47 172.643 8.37 171.057 6.83 169.05C5.29 166.997 4.42667 164.71 4.24 162.19H16.07C16.21 163.543 16.84 164.64 17.96 165.48C19.08 166.32 20.4567 166.74 22.09 166.74C23.5833 166.74 24.7267 166.46 25.52 165.9C26.36 165.293 26.78 164.523 26.78 163.59C26.78 162.47 26.1967 161.653 25.03 161.14C23.8633 160.58 21.9733 159.973 19.36 159.32C16.56 158.667 14.2267 157.99 12.36 157.29C10.4933 156.543 8.88333 155.4 7.53 153.86C6.17667 152.273 5.5 150.15 5.5 147.49C5.5 145.25 6.10667 143.22 7.32 141.4C8.58 139.533 10.4 138.063 12.78 136.99C15.2067 135.917 18.0767 135.38 21.39 135.38C26.29 135.38 30.14 136.593 32.94 139.02C35.7867 141.447 37.42 144.667 37.84 148.68H26.78C26.5933 147.327 25.9867 146.253 24.96 145.46C23.98 144.667 22.6733 144.27 21.04 144.27C19.64 144.27 18.5667 144.55 17.82 145.11C17.0733 145.623 16.7 146.347 16.7 147.28C16.7 148.4 17.2833 149.24 18.45 149.8C19.6633 150.36 21.53 150.92 24.05 151.48C26.9433 152.227 29.3 152.973 31.12 153.72C32.94 154.42 34.5267 155.587 35.88 157.22C37.28 158.807 38.0033 160.953 38.05 163.66C38.05 165.947 37.3967 168 36.09 169.82C34.83 171.593 32.9867 172.993 30.56 174.02C28.18 175.047 25.4033 175.56 22.23 175.56ZM82.1932 154.84C82.1932 155.96 82.1232 157.127 81.9832 158.34H54.8932C55.0799 160.767 55.8499 162.633 57.2032 163.94C58.6032 165.2 60.3065 165.83 62.3132 165.83C65.2999 165.83 67.3765 164.57 68.5432 162.05H81.2832C80.6299 164.617 79.4399 166.927 77.7132 168.98C76.0332 171.033 73.9099 172.643 71.3432 173.81C68.7765 174.977 65.9065 175.56 62.7332 175.56C58.9065 175.56 55.4999 174.743 52.5132 173.11C49.5265 171.477 47.1932 169.143 45.5132 166.11C43.8332 163.077 42.9932 159.53 42.9932 155.47C42.9932 151.41 43.8099 147.863 45.4432 144.83C47.1232 141.797 49.4565 139.463 52.4432 137.83C55.4299 136.197 58.8599 135.38 62.7332 135.38C66.5132 135.38 69.8732 136.173 72.8132 137.76C75.7532 139.347 78.0399 141.61 79.6732 144.55C81.3532 147.49 82.1932 150.92 82.1932 154.84ZM69.9432 151.69C69.9432 149.637 69.2432 148.003 67.8432 146.79C66.4432 145.577 64.6932 144.97 62.5932 144.97C60.5865 144.97 58.8832 145.553 57.4832 146.72C56.1299 147.887 55.2899 149.543 54.9632 151.69H69.9432ZM100.478 142.45C101.878 140.303 103.628 138.623 105.728 137.41C107.828 136.15 110.161 135.52 112.728 135.52V148.19H109.438C106.451 148.19 104.211 148.843 102.718 150.15C101.225 151.41 100.478 153.65 100.478 156.87V175H88.508V135.94H100.478V142.45ZM136.019 163.8L144.489 135.94H157.229L143.369 175H128.599L114.739 135.94H127.549L136.019 163.8ZM168.288 131.88C166.188 131.88 164.461 131.273 163.108 130.06C161.801 128.8 161.148 127.26 161.148 125.44C161.148 123.573 161.801 122.033 163.108 120.82C164.461 119.56 166.188 118.93 168.288 118.93C170.341 118.93 172.021 119.56 173.328 120.82C174.681 122.033 175.358 123.573 175.358 125.44C175.358 127.26 174.681 128.8 173.328 130.06C172.021 131.273 170.341 131.88 168.288 131.88ZM174.238 135.94V175H162.268V135.94H174.238ZM180.532 155.47C180.532 151.41 181.349 147.863 182.982 144.83C184.662 141.797 186.972 139.463 189.912 137.83C192.899 136.197 196.306 135.38 200.132 135.38C205.032 135.38 209.116 136.663 212.382 139.23C215.696 141.797 217.866 145.413 218.892 150.08H206.152C205.079 147.093 203.002 145.6 199.922 145.6C197.729 145.6 195.979 146.463 194.672 148.19C193.366 149.87 192.712 152.297 192.712 155.47C192.712 158.643 193.366 161.093 194.672 162.82C195.979 164.5 197.729 165.34 199.922 165.34C203.002 165.34 205.079 163.847 206.152 160.86H218.892C217.866 165.433 215.696 169.027 212.382 171.64C209.069 174.253 204.986 175.56 200.132 175.56C196.306 175.56 192.899 174.743 189.912 173.11C186.972 171.477 184.662 169.143 182.982 166.11C181.349 163.077 180.532 159.53 180.532 155.47ZM262.115 154.84C262.115 155.96 262.045 157.127 261.905 158.34H234.815C235.002 160.767 235.772 162.633 237.125 163.94C238.525 165.2 240.228 165.83 242.235 165.83C245.222 165.83 247.298 164.57 248.465 162.05H261.205C260.552 164.617 259.362 166.927 257.635 168.98C255.955 171.033 253.832 172.643 251.265 173.81C248.698 174.977 245.828 175.56 242.655 175.56C238.828 175.56 235.422 174.743 232.435 173.11C229.448 171.477 227.115 169.143 225.435 166.11C223.755 163.077 222.915 159.53 222.915 155.47C222.915 151.41 223.732 147.863 225.365 144.83C227.045 141.797 229.378 139.463 232.365 137.83C235.352 136.197 238.782 135.38 242.655 135.38C246.435 135.38 249.795 136.173 252.735 137.76C255.675 139.347 257.962 141.61 259.595 144.55C261.275 147.49 262.115 150.92 262.115 154.84ZM249.865 151.69C249.865 149.637 249.165 148.003 247.765 146.79C246.365 145.577 244.615 144.97 242.515 144.97C240.508 144.97 238.805 145.553 237.405 146.72C236.052 147.887 235.212 149.543 234.885 151.69H249.865ZM284.32 175.56C280.913 175.56 277.88 174.977 275.22 173.81C272.56 172.643 270.46 171.057 268.92 169.05C267.38 166.997 266.517 164.71 266.33 162.19H278.16C278.3 163.543 278.93 164.64 280.05 165.48C281.17 166.32 282.547 166.74 284.18 166.74C285.673 166.74 286.817 166.46 287.61 165.9C288.45 165.293 288.87 164.523 288.87 163.59C288.87 162.47 288.287 161.653 287.12 161.14C285.953 160.58 284.063 159.973 281.45 159.32C278.65 158.667 276.317 157.99 274.45 157.29C272.583 156.543 270.973 155.4 269.62 153.86C268.267 152.273 267.59 150.15 267.59 147.49C267.59 145.25 268.197 143.22 269.41 141.4C270.67 139.533 272.49 138.063 274.87 136.99C277.297 135.917 280.167 135.38 283.48 135.38C288.38 135.38 292.23 136.593 295.03 139.02C297.877 141.447 299.51 144.667 299.93 148.68H288.87C288.683 147.327 288.077 146.253 287.05 145.46C286.07 144.667 284.763 144.27 283.13 144.27C281.73 144.27 280.657 144.55 279.91 145.11C279.163 145.623 278.79 146.347 278.79 147.28C278.79 148.4 279.373 149.24 280.54 149.8C281.753 150.36 283.62 150.92 286.14 151.48C289.033 152.227 291.39 152.973 293.21 153.72C295.03 154.42 296.617 155.587 297.97 157.22C299.37 158.807 300.093 160.953 300.14 163.66C300.14 165.947 299.487 168 298.18 169.82C296.92 171.593 295.077 172.993 292.65 174.02C290.27 175.047 287.493 175.56 284.32 175.56Z" fill="white"/>
</svg>
