<svg width="397" height="228" viewBox="0 0 397 228" fill="none" xmlns="http://www.w3.org/2000/svg">
<circle cx="55" cy="55" r="44" stroke="#2F49C0" stroke-width="22"/>
<path d="M16.31 144.45V154.39H32.34V163.63H16.31V174.41H34.44V184H4.34V134.86H34.44V144.45H16.31ZM65.3111 184L57.8211 173.15L51.5211 184H38.5711L51.4511 164.05L38.2211 144.94H51.6611L59.1511 155.72L65.4511 144.94H78.4011L65.3111 164.61L78.7511 184H65.3111ZM95.3334 150.47C96.5001 148.65 98.1101 147.18 100.163 146.06C102.217 144.94 104.62 144.38 107.373 144.38C110.593 144.38 113.51 145.197 116.123 146.83C118.737 148.463 120.79 150.797 122.283 153.83C123.823 156.863 124.593 160.387 124.593 164.4C124.593 168.413 123.823 171.96 122.283 175.04C120.79 178.073 118.737 180.43 116.123 182.11C113.51 183.743 110.593 184.56 107.373 184.56C104.667 184.56 102.263 184 100.163 182.88C98.1101 181.76 96.5001 180.313 95.3334 178.54V202.62H83.3634V144.94H95.3334V150.47ZM112.413 164.4C112.413 161.413 111.573 159.08 109.893 157.4C108.26 155.673 106.23 154.81 103.803 154.81C101.423 154.81 99.3934 155.673 97.7134 157.4C96.0801 159.127 95.2634 161.483 95.2634 164.47C95.2634 167.457 96.0801 169.813 97.7134 171.54C99.3934 173.267 101.423 174.13 103.803 174.13C106.183 174.13 108.213 173.267 109.893 171.54C111.573 169.767 112.413 167.387 112.413 164.4ZM167.693 163.84C167.693 164.96 167.623 166.127 167.483 167.34H140.393C140.58 169.767 141.35 171.633 142.703 172.94C144.103 174.2 145.807 174.83 147.813 174.83C150.8 174.83 152.877 173.57 154.043 171.05H166.783C166.13 173.617 164.94 175.927 163.213 177.98C161.533 180.033 159.41 181.643 156.843 182.81C154.277 183.977 151.407 184.56 148.233 184.56C144.407 184.56 141 183.743 138.013 182.11C135.027 180.477 132.693 178.143 131.013 175.11C129.333 172.077 128.493 168.53 128.493 164.47C128.493 160.41 129.31 156.863 130.943 153.83C132.623 150.797 134.957 148.463 137.943 146.83C140.93 145.197 144.36 144.38 148.233 144.38C152.013 144.38 155.373 145.173 158.313 146.76C161.253 148.347 163.54 150.61 165.173 153.55C166.853 156.49 167.693 159.92 167.693 163.84ZM155.443 160.69C155.443 158.637 154.743 157.003 153.343 155.79C151.943 154.577 150.193 153.97 148.093 153.97C146.087 153.97 144.383 154.553 142.983 155.72C141.63 156.887 140.79 158.543 140.463 160.69H155.443ZM185.978 151.45C187.378 149.303 189.128 147.623 191.228 146.41C193.328 145.15 195.661 144.52 198.228 144.52V157.19H194.938C191.951 157.19 189.711 157.843 188.218 159.15C186.725 160.41 185.978 162.65 185.978 165.87V184H174.008V144.94H185.978V151.45ZM209.969 140.88C207.869 140.88 206.143 140.273 204.789 139.06C203.483 137.8 202.829 136.26 202.829 134.44C202.829 132.573 203.483 131.033 204.789 129.82C206.143 128.56 207.869 127.93 209.969 127.93C212.023 127.93 213.703 128.56 215.009 129.82C216.363 131.033 217.039 132.573 217.039 134.44C217.039 136.26 216.363 137.8 215.009 139.06C213.703 140.273 212.023 140.88 209.969 140.88ZM215.919 144.94V184H203.949V144.94H215.919ZM261.414 163.84C261.414 164.96 261.344 166.127 261.204 167.34H234.114C234.301 169.767 235.071 171.633 236.424 172.94C237.824 174.2 239.527 174.83 241.534 174.83C244.521 174.83 246.597 173.57 247.764 171.05H260.504C259.851 173.617 258.661 175.927 256.934 177.98C255.254 180.033 253.131 181.643 250.564 182.81C247.997 183.977 245.127 184.56 241.954 184.56C238.127 184.56 234.721 183.743 231.734 182.11C228.747 180.477 226.414 178.143 224.734 175.11C223.054 172.077 222.214 168.53 222.214 164.47C222.214 160.41 223.031 156.863 224.664 153.83C226.344 150.797 228.677 148.463 231.664 146.83C234.651 145.197 238.081 144.38 241.954 144.38C245.734 144.38 249.094 145.173 252.034 146.76C254.974 148.347 257.261 150.61 258.894 153.55C260.574 156.49 261.414 159.92 261.414 163.84ZM249.164 160.69C249.164 158.637 248.464 157.003 247.064 155.79C245.664 154.577 243.914 153.97 241.814 153.97C239.807 153.97 238.104 154.553 236.704 155.72C235.351 156.887 234.511 158.543 234.184 160.69H249.164ZM291.529 144.52C296.102 144.52 299.742 146.013 302.449 149C305.202 151.94 306.579 156 306.579 161.18V184H294.679V162.79C294.679 160.177 294.002 158.147 292.649 156.7C291.295 155.253 289.475 154.53 287.189 154.53C284.902 154.53 283.082 155.253 281.729 156.7C280.375 158.147 279.699 160.177 279.699 162.79V184H267.729V144.94H279.699V150.12C280.912 148.393 282.545 147.04 284.599 146.06C286.652 145.033 288.962 144.52 291.529 144.52ZM312.517 164.47C312.517 160.41 313.333 156.863 314.967 153.83C316.647 150.797 318.957 148.463 321.897 146.83C324.883 145.197 328.29 144.38 332.117 144.38C337.017 144.38 341.1 145.663 344.367 148.23C347.68 150.797 349.85 154.413 350.877 159.08H338.137C337.063 156.093 334.987 154.6 331.907 154.6C329.713 154.6 327.963 155.463 326.657 157.19C325.35 158.87 324.697 161.297 324.697 164.47C324.697 167.643 325.35 170.093 326.657 171.82C327.963 173.5 329.713 174.34 331.907 174.34C334.987 174.34 337.063 172.847 338.137 169.86H350.877C349.85 174.433 347.68 178.027 344.367 180.64C341.053 183.253 336.97 184.56 332.117 184.56C328.29 184.56 324.883 183.743 321.897 182.11C318.957 180.477 316.647 178.143 314.967 175.11C313.333 172.077 312.517 168.53 312.517 164.47ZM394.099 163.84C394.099 164.96 394.029 166.127 393.889 167.34H366.799C366.986 169.767 367.756 171.633 369.109 172.94C370.509 174.2 372.213 174.83 374.219 174.83C377.206 174.83 379.283 173.57 380.449 171.05H393.189C392.536 173.617 391.346 175.927 389.619 177.98C387.939 180.033 385.816 181.643 383.249 182.81C380.683 183.977 377.813 184.56 374.639 184.56C370.813 184.56 367.406 183.743 364.419 182.11C361.433 180.477 359.099 178.143 357.419 175.11C355.739 172.077 354.899 168.53 354.899 164.47C354.899 160.41 355.716 156.863 357.349 153.83C359.029 150.797 361.363 148.463 364.349 146.83C367.336 145.197 370.766 144.38 374.639 144.38C378.419 144.38 381.779 145.173 384.719 146.76C387.659 148.347 389.946 150.61 391.579 153.55C393.259 156.49 394.099 159.92 394.099 163.84ZM381.849 160.69C381.849 158.637 381.149 157.003 379.749 155.79C378.349 154.577 376.599 153.97 374.499 153.97C372.493 153.97 370.789 154.553 369.389 155.72C368.036 156.887 367.196 158.543 366.869 160.69H381.849Z" fill="#2F49C0"/>
</svg>
