<svg id="Layer_1" data-name="Layer 1" xmlns="http://www.w3.org/2000/svg" viewBox="0 0 384.87 384.87"><defs><style>.cls-1{fill:#fff;}</style></defs><path class="cls-1" d="M67.22,232.32a131.5,131.5,0,1,1,250.47-.26C355.13,246.65,357.13,292,357.13,292h0a191.56,191.56,0,0,0,27.74-99.58C384.87,86.16,298.71,0,192.43,0S0,86.16,0,192.43a191.58,191.58,0,0,0,27.64,99.42c0-.18,2.12-45.36,39.58-59.53Z"/><path class="cls-1" d="M294.82,274.49a131.49,131.49,0,0,1-205-.3h0S59.92,296.68,58.93,331a192.4,192.4,0,0,0,266.53.47C324.56,299.39,298.63,277.54,294.82,274.49Z"/></svg>